<?xml version="1.0" encoding="UTF-8" standalone="no"?>
<!-- Generator: Adobe Illustrator 14.0.0, SVG Export Plug-In . SVG Version: 6.00 Build 43363)  -->

<svg
   version="1.1"
   x="0px"
   y="0px"
   width="640"
   height="86"
   viewBox="0 0 639.99999 85.999996"
   enable-background="new 0 0 841.89 595.275"
   xml:space="preserve"
   id="svg2"
   inkscape:version="1.4 (e7c3feb100, 2024-10-09)"
   sodipodi:docname="launcher_red.svg"
   xmlns:inkscape="http://www.inkscape.org/namespaces/inkscape"
   xmlns:sodipodi="http://sodipodi.sourceforge.net/DTD/sodipodi-0.dtd"
   xmlns="http://www.w3.org/2000/svg"
   xmlns:svg="http://www.w3.org/2000/svg"
   xmlns:rdf="http://www.w3.org/1999/02/22-rdf-syntax-ns#"
   xmlns:cc="http://creativecommons.org/ns#"
   xmlns:dc="http://purl.org/dc/elements/1.1/"><metadata
   id="metadata116"><rdf:RDF><cc:Work
       rdf:about=""><dc:format>image/svg+xml</dc:format><dc:type
         rdf:resource="http://purl.org/dc/dcmitype/StillImage" /></cc:Work></rdf:RDF></metadata><defs
   id="defs114"><rect
     x="49"
     y="-99"
     width="219"
     height="63.5"
     id="rect1" /><linearGradient
     id="SVGID_1_"
     gradientUnits="userSpaceOnUse"
     x1="314.4512"
     y1="207.5654"
     x2="438.5957"
     y2="207.5654"><stop
       offset="0"
       style="stop-color:#FFFFFF"
       id="stop12" /><stop
       offset="0.3111"
       style="stop-color:#FCFDFD"
       id="stop14" /><stop
       offset="0.5297"
       style="stop-color:#F3F6F7"
       id="stop16" /><stop
       offset="0.7199"
       style="stop-color:#E3E9ED"
       id="stop18" /><stop
       offset="0.893"
       style="stop-color:#CED8DF"
       id="stop20" /><stop
       offset="1"
       style="stop-color:#BCCAD4"
       id="stop22" /></linearGradient><linearGradient
     id="SVGID_2_"
     gradientUnits="userSpaceOnUse"
     x1="296.84329"
     y1="304.44629"
     x2="103.0829"
     y2="110.6859"><stop
       offset="0"
       style="stop-color:#FFFFFF"
       id="stop67" /><stop
       offset="1"
       style="stop-color:#143A59"
       id="stop69" /></linearGradient><linearGradient
     id="SVGID_3_"
     gradientUnits="userSpaceOnUse"
     x1="41.3843"
     y1="207.5654"
     x2="334"
     y2="207.5654"><stop
       offset="0"
       style="stop-color:#ffffff;stop-opacity:0.19607843;"
       id="stop74" /><stop
       offset="1"
       style="stop-color:#3f74a7;stop-opacity:0.39215687;"
       id="stop76" /></linearGradient><linearGradient
     id="SVGID_4_"
     gradientUnits="userSpaceOnUse"
     x1="2.5546999"
     y1="304.44629"
     x2="-191.2057"
     y2="110.6859"
     gradientTransform="matrix(-1,0,0,1,458.7852,0)"><stop
       offset="0"
       style="stop-color:#FFFFFF"
       id="stop81" /><stop
       offset="1"
       style="stop-color:#143A59"
       id="stop83" /></linearGradient><linearGradient
     id="linearGradient5091-3-6"><stop
       style="stop-color:#fffeff;stop-opacity:1;"
       offset="0"
       id="stop5093-87-6" /><stop
       style="stop-color:#fffeff;stop-opacity:0;"
       offset="1"
       id="stop5095-4-1" /></linearGradient><linearGradient
     id="linearGradient5077-2-4"><stop
       style="stop-color:#fffeff;stop-opacity:1;"
       offset="0"
       id="stop5079-7-9" /><stop
       style="stop-color:#fffeff;stop-opacity:0;"
       offset="1"
       id="stop5081-7-6" /></linearGradient><rect
     x="49"
     y="-99"
     width="219"
     height="63.5"
     id="rect1-9" /></defs><sodipodi:namedview
   pagecolor="#ff00ff"
   bordercolor="#666666"
   borderopacity="1"
   objecttolerance="10"
   gridtolerance="10"
   guidetolerance="10"
   inkscape:pageopacity="0"
   inkscape:pageshadow="2"
   inkscape:window-width="2560"
   inkscape:window-height="1371"
   id="namedview112"
   showgrid="false"
   inkscape:zoom="1.4142136"
   inkscape:cx="201.52543"
   inkscape:cy="63.639609"
   inkscape:window-x="0"
   inkscape:window-y="0"
   inkscape:window-maximized="1"
   inkscape:current-layer="layer5"
   inkscape:showpageshadow="2"
   inkscape:pagecheckerboard="0"
   inkscape:deskcolor="#d1d1d1" />
<g
   inkscape:groupmode="layer"
   id="layer5"
   inkscape:label="Surround"><g
     id="Layer_1"
     transform="matrix(0.94395535,0,0,0.94395223,-35.418621,-152.81993)"><linearGradient
       id="linearGradient4991"
       gradientUnits="userSpaceOnUse"
       x1="314.4512"
       y1="207.5654"
       x2="438.5957"
       y2="207.5654"><stop
         offset="0"
         style="stop-color:#FFFFFF"
         id="stop4993" /><stop
         offset="0.3111"
         style="stop-color:#FCFDFD"
         id="stop4995" /><stop
         offset="0.5297"
         style="stop-color:#F3F6F7"
         id="stop4997" /><stop
         offset="0.7199"
         style="stop-color:#E3E9ED"
         id="stop4999" /><stop
         offset="0.893"
         style="stop-color:#CED8DF"
         id="stop5001" /><stop
         offset="1"
         style="stop-color:#BCCAD4"
         id="stop5003" /></linearGradient><linearGradient
       id="linearGradient5006"
       gradientUnits="userSpaceOnUse"
       x1="296.84329"
       y1="304.44629"
       x2="103.0829"
       y2="110.6859"><stop
         offset="0"
         style="stop-color:#FFFFFF"
         id="stop5008" /><stop
         offset="1"
         style="stop-color:#143A59"
         id="stop5010" /></linearGradient><path
       d="m 317.654,207.565 c 0,-20.566 12.674,-38.163 30.634,-45.434 H 55.715 c -24.258,0 -24.258,90.869 0,90.869 h 292.574 c -17.96,-7.271 -30.635,-24.867 -30.635,-45.435 z"
       id="path71"
       style="fill:#000000" /><path
       style="fill:#ffffff"
       d="m 55.715,165.995 c -8.036,0 -14.331,18.26 -14.331,41.571 0,23.311 6.295,41.571 14.331,41.571 0,0 253.7,0 278.28499,0 C 321.417,239.293 313.79,224.146 313.79,207.566 c 0,-16.579 7.628,-31.726 20.20999,-41.571 -24.58499,0 -278.28499,0 -278.28499,0 z"
       id="path78-7" /><linearGradient
       id="linearGradient5013"
       gradientUnits="userSpaceOnUse"
       x1="41.3843"
       y1="207.5654"
       x2="334"
       y2="207.5654"><stop
         offset="0"
         style="stop-color:#ffffff;stop-opacity:0.19607843;"
         id="stop5015" /><stop
         offset="1"
         style="stop-color:#3f74a7;stop-opacity:0.39215687;"
         id="stop5017" /></linearGradient><linearGradient
       id="linearGradient5021"
       gradientUnits="userSpaceOnUse"
       x1="2.5546999"
       y1="304.44629"
       x2="-191.2057"
       y2="110.6859"
       gradientTransform="matrix(-1,0,0,1,458.7852,0)"><stop
         offset="0"
         style="stop-color:#FFFFFF"
         id="stop5023-2" /><stop
         offset="1"
         style="stop-color:#143A59"
         id="stop5025-4" /></linearGradient><path
       d="m 435.421,207.565 c 0,-20.566 -12.675,-38.163 -30.635,-45.434 h 292.573 c 24.258,0 24.258,90.869 0,90.869 H 404.785 c 17.96,-7.271 30.636,-24.867 30.636,-45.435 z"
       id="path85"
       style="fill:#000000" /><path
       d="m 697.35899,165.995 c 8.036,0 14.331,18.26 14.331,41.571 0,23.311 -6.295,41.571 -14.331,41.571 0,0 -253.7,0 -278.285,0 12.583,-9.844 20.21,-24.991 20.21,-41.571 0,-16.579 -7.627,-31.726 -20.209,-41.571 24.584,0 278.284,0 278.284,0 z"
       id="path92-7"
       style="fill:#ffffff;fill-opacity:1" /><linearGradient
       id="SVGID_5_"
       gradientUnits="userSpaceOnUse"
       x1="-252.9053"
       y1="207.5654"
       x2="39.710899"
       y2="207.5654"
       gradientTransform="matrix(-1,0,0,1,458.7852,0)"><stop
         offset="0"
         style="stop-color:#FFFFFF"
         id="stop88" /><stop
         offset="1"
         style="stop-color:#D7E9F7"
         id="stop90" /></linearGradient><g
       transform="matrix(1.0620082,0,0,1.0217637,61.952197,122.59923)"
       id="g46-7-7"
       style="fill:#007fff;fill-opacity:1;stroke:#000000;stroke-opacity:1" /></g><g
     id="Layer_5"
     transform="matrix(0.94395535,0,0,0.94395223,-35.418621,-152.81993)" /><path
     d="m 52.954679,53.266672 0.149334,-9.408005 H 26.597334 L 26,62.749343 H 55.045347 L 70.650688,43.858667 H 60.64535 Z M 26.672,42.962667 h 26.50668 l 0.07467,-6.048003 H 26.896 Z m 0.224,-7.840004 H 53.253346 L 53.40268,30.045327 H 27.12 Z m 0.298667,-7.840004 H 53.40268 l 0.07467,-4.032002 H 27.344001 Z m 34.272017,15.680008 h 9.930671 l 5.002669,-6.048003 H 66.394686 Z M 67.88802,35.122663 H 77.893358 L 82.14936,30.045327 H 72.069355 Z m 6.421336,-7.840004 h 10.080005 l 3.360002,-4.032002 H 77.669358 Z m 37.482624,28.821347 h -7.76534 q -0.0747,-0.07467 -0.0747,-0.896 0,-1.493334 0.59734,-4.256002 0.672,-2.762668 2.24,-7.01867 v -0.07467 H 81.701297 q -1.269334,3.210668 -2.240001,6.720003 -0.896,3.434669 -0.970667,6.57067 0,2.464001 0.896001,4.032002 0.896,1.568001 3.210668,1.568001 h 44.874692 q 2.38933,0 4.62933,-1.568001 2.31467,-1.568001 4.40534,-4.181335 2.09066,-2.688001 3.808,-6.048003 1.792,-3.434668 3.21067,-7.093337 h -25.16268 l -0.0747,0.149334 q -0.82133,2.016001 -1.86667,4.181335 -1.04533,2.090668 -2.016,3.808002 -0.97066,1.717334 -1.71733,2.912001 -0.74667,1.120001 -0.896,1.194667 z M 90.885302,27.282659 h 56.224028 q -0.224,-1.866667 -1.19467,-2.912001 -0.97067,-1.120001 -2.76267,-1.120001 H 98.35197 q -2.015999,0 -3.882667,1.120001 -1.792,1.045334 -3.584001,2.912001 z m 54.954688,9.632005 h -25.16267 q -0.29867,1.194667 -0.672,2.464001 -0.37334,1.194667 -0.82134,2.464001 l -0.448,1.120001 h 25.16268 q 0.59733,-1.568001 1.04533,-3.061335 0.52267,-1.493334 0.896,-2.986668 z m -63.541359,5.600003 -0.224,0.448 h 25.162679 l 0.448,-1.269334 q 0.37333,-1.269334 0.896,-2.389335 0.52267,-1.194667 1.12,-2.389334 H 84.687965 q -0.597333,1.344001 -1.194667,2.762668 -0.597333,1.418667 -1.194667,2.837335 z M 147.184,30.045327 h -25.38668 q 0,0.448001 -0.14934,1.792001 -0.14933,1.344001 -0.59733,3.285335 h 25.23734 Q 146.96,32.434662 147.184,30.045327 Z m -61.600034,5.077336 h 25.088014 q 1.12,-1.941334 2.016,-3.285335 0.896,-1.344 1.26933,-1.792001 H 88.719967 q -0.896,1.194668 -1.642667,2.464002 -0.746667,1.269333 -1.493334,2.613334 z m 55.850684,27.62668 H 182.8 q 0.672,-0.746667 1.26933,-1.568001 0.672,-0.896 1.04534,-1.866667 0.29866,-0.522667 0.29866,-1.866668 0,-0.298667 -0.0747,-0.597334 0,-0.373333 0,-0.746667 h -16.65068 l 4.62934,-12.245339 h -24.71468 z m 7.616,-19.786676 h 24.64001 l 2.31467,-6.048003 h -24.71468 z m 2.912,-7.840004 h 24.71468 l 2.016,-5.077336 H 153.97865 Z M 181.232,23.250657 h -24.71468 l -1.568,4.032002 H 179.664 Z m 68.17064,20.60801 h -26.88002 q 0,1.642668 -0.0747,3.285335 -0.0747,1.568001 -0.14934,3.210668 h -14.41067 l 5.376,-6.496003 H 203.10924 L 187.5039,62.749343 h 10.00534 l 4.928,-5.749336 h 19.63734 l -0.0747,5.749336 h 26.50668 l 0.224,-1.045334 q 0.0747,-0.896 0.14933,-2.165334 0.14933,-1.269334 0.224,-3.285335 0.0747,-2.016001 0.14933,-5.002669 0.0747,-2.986668 0.14934,-7.392004 z M 222.52262,32.733329 q 0,0.597333 0,1.194667 0.0747,0.597333 0,1.194667 h 27.02935 l 0.14933,-5.077336 h -35.09335 l -4.256,5.077336 h 10.15467 z m 26.95468,7.541337 0.0747,-3.360002 h -26.95468 v 6.048003 h 26.88001 z m 0.224,-17.024009 h -29.49334 l -3.36,4.032002 h 32.85334 l 0.0747,-3.434668 q 0,-0.522667 -0.0747,-0.597334 z m -45.84535,19.71201 h 10.15467 l 5.00267,-6.048003 h -10.15467 z"
     id="text3"
     style="font-size:74.6667px;line-height:1.25;font-family:'Americorps Halftone';-inkscape-font-specification:'Americorps Halftone'"
     aria-label="VOLA" /></g>
<g
   id="Layer_2"
   display="none"
   style="display:none"
   transform="translate(0,-509.27502)">
	<rect
   x="36.318001"
   y="160.65601"
   display="inline"
   width="680.315"
   height="93.344002"
   id="rect8"
   style="fill:none;stroke:#2e4160;display:inline" />
</g>



<g
   style="display:inline"
   inkscape:label="SHOW Text (as paths)"
   id="g5309"
   inkscape:groupmode="layer"><path
     d="m 439.83537,60.305402 -1.95912,2.519014 q -1.46934,-0.719718 -6.24471,-0.799687 2.32646,0.03998 -6.97938,0.03998 -1.51016,-1.039594 -3.22439,-6.277544 -1.95912,-5.997652 -3.30602,-7.756964 -0.0408,-0.07996 -1.71423,-1.799295 -1.06119,-1.079578 -1.26527,-2.079187 l 0.69385,-1.599374 -4.0815,0.679734 0.20407,-0.319874 v 11.875351 l 0.40816,0.319876 q -0.0409,0.359859 -0.0409,0.639749 0,1.599374 1.71423,2.039202 2.08156,0.519797 2.61217,1.639358 l -1.26527,2.239124 -0.20408,-0.199922 q -2.32646,0.959624 -6.85693,0.959624 -1.0612,0 -3.22439,-0.07996 -2.12239,-0.03998 -3.18358,-0.03998 -2.77543,0 -4.48966,0.319874 l -1.42852,-2.199139 q 0.36733,-1.279499 1.67341,-1.959233 0.61223,-0.319875 2.32646,-0.719719 1.22446,-0.27989 1.51016,-0.679733 l -0.0816,-1.159546 0.40815,-2.798905 q 0.24489,-1.679343 0.24489,-2.838889 0,-1.319484 -0.36733,-3.878482 -0.36734,-2.558998 -0.36734,-3.878481 0,-3.598592 0.93874,-12.435133 l -1.18363,-2.75892 q -1.83668,0 -2.48972,-0.119954 -1.75505,-0.319874 -1.75505,-1.439436 0,-0.959625 2.9795,-2.239124 l 2.36728,0.759703 q 4.57128,0 6.16307,-1.2795 0.69386,0.119954 1.26527,0.839672 l 0.48978,-0.319875 q 2.53054,0.719718 6.32634,0.719718 1.42853,0 4.20395,-0.119952 2.81625,-0.159938 4.24477,-0.159938 l 5.55085,1.359468 0.20407,-0.159937 3.59173,5.357903 q -0.69385,5.397887 -2.6938,7.956885 -1.67341,2.11917 -6.61204,5.117997 l 0.16327,0.07996 0.81629,-0.239906 q 0.73468,0.959624 1.26527,2.75892 0.65305,2.159155 1.02039,2.878874 1.34689,2.558998 4.04068,5.397887 3.38765,3.558607 4.36722,4.838107 0.2857,0.07997 0.93875,-0.03998 0.69385,-0.119954 0.85712,-0.119954 0.93874,0 1.42852,1.159547 z M 421.2237,33.435919 q 0,-1.55939 -1.18364,-2.998827 -1.18364,-1.439436 -2.73461,-1.439436 h -5.4284 l -0.61223,11.395539 q 1.71422,-0.279889 4.53047,-0.799687 3.38765,-0.639748 3.75498,-0.83967 1.02039,-0.559782 1.42854,-2.918858 0.24489,-1.439437 0.24489,-2.399061 z m 61.71241,5.317919 q -0.44897,7.277151 -2.61216,11.555477 -1.87749,3.678559 -7.38754,9.116431 l -2.04075,0.319875 -0.24489,-0.159938 -8.77523,3.078796 -0.2449,-0.159937 -0.61222,0.319874 -0.16327,-0.159937 -1.71423,0.319874 q -1.55097,0 -2.53054,-0.519796 l -0.61222,-1.359468 -1.46935,0.479812 q -6.73449,-1.959233 -10.12214,-7.597027 -3.06112,-5.038028 -3.06112,-12.315179 0,-5.477856 1.102,-7.916901 0.65305,-1.439437 4.48967,-6.157591 1.38771,-0.439827 4.6121,-2.638966 2.85706,-1.959234 4.65292,-1.959234 9.06094,0 12.81593,1.079578 4.85699,1.399452 10.36703,6.277543 0.89793,0.799687 1.6326,2.798905 0.93875,2.598983 1.22445,3.078794 0.12245,0.199922 0.40815,1.2795 0.28571,1.039593 0.28571,1.239515 z m -10.2854,7.63701 q 0,-0.119953 -0.93874,-1.399452 l 0.61223,-3.238733 q 0,-3.03881 -0.7755,-5.357903 -0.36733,-1.159546 -1.6326,-3.438653 -0.93874,-1.719328 -1.14282,-2.718936 l -2.08157,-1.879264 q -1.3469,-0.999609 -2.57135,-0.999609 -5.26515,0 -8.81605,2.279107 -3.95907,2.519015 -4.77538,7.397105 -0.20406,1.159546 -0.16325,1.239515 0.89793,7.597027 3.63254,12.595071 l -1.91831,1.159546 q 0.61223,1.239515 1.02038,2.718935 0.53059,2.039202 5.75492,2.678952 0.36734,0.03998 5.959,0.279891 3.87744,-2.838889 5.38759,-4.718154 2.44891,-2.998827 2.44891,-6.597418 z m 35.4275,7.836933 q 0,2.239124 -3.42848,5.197965 -3.38765,2.958842 -5.71411,2.878874 l -1.02037,0.679733 q -0.36734,-0.27989 -0.8163,-0.27989 -0.44897,0 -0.89794,0.27989 l -3.99987,-0.679733 q -1.02038,0.799687 -1.8775,0.679733 l -4.24476,-0.519796 q -2.44891,-0.319875 -3.91825,-1.439437 l 0.12245,-0.959624 -0.53061,-6.037637 q -0.0409,-0.599765 0.81631,-1.439437 0.89793,-0.839671 1.55097,-0.839671 0.20408,0 7.95894,6.717371 l 0.16327,-0.159937 4.97944,1.519405 h 2.81623 q 0,-6.357512 -1.02037,-8.436698 -0.77549,-1.55939 -3.38765,-2.598983 -3.95907,-1.55939 -6.32634,-3.278716 -0.93875,-0.679735 -2.04075,-2.439046 -1.22446,-1.879265 -1.87751,-2.47903 -2.40808,-2.199139 -2.77542,-2.638966 -1.18363,-1.519406 -1.18363,-3.598592 0,-4.758138 3.2652,-6.43748 -0.40814,-0.319876 -0.40814,-0.799687 0,-2.159155 4.32639,-2.718937 0.77549,-0.03998 5.02026,-0.399843 1.30608,-0.399844 3.95906,-0.999609 l 4.73455,2.159156 0.97955,-1.159547 1.10201,-0.319875 q 1.95913,1.199531 1.95913,3.078796 v 4.718153 q 0,1.159546 -0.69386,2.279108 -0.77549,1.279499 -1.87749,1.279499 l -1.34689,-0.719718 v -1.519406 l -0.81631,-0.519796 q -0.69386,-1.799296 -1.38771,-3.558607 -0.48978,-0.839672 -3.55092,-2.199139 -0.20407,0.359858 -1.42852,0.839671 L 494.2419,27.19836 q -2.36728,0 -4.08151,1.239515 -1.91832,1.359468 -1.91832,3.598591 0,3.158764 5.14271,5.437872 7.75486,3.438655 9.55072,4.87809 5.14271,4.158374 5.14271,11.875353 z m -21.30547,3.95845 -0.28572,-0.27989 -0.16325,0.199922 0.24489,0.239905 z m 43.54971,2.638968 q -1.75505,2.159154 -2.85706,2.159154 -0.65305,0 -0.97956,-0.599765 -0.57142,-1.079577 -0.65304,-1.159546 l -0.93875,0.239906 q -1.95913,0 -5.83656,-0.199921 -3.83662,-0.159938 -5.79574,-0.159938 -1.79587,0 -3.34683,0.119953 v -1.679343 q 1.26526,-2.159155 3.91824,-2.11917 l 2.24483,-6.357512 v -3.718545 l 0.0408,-3.998435 q 0.0816,-9.316353 -1.38771,-14.834193 l -1.67342,-1.239515 -1.02038,0.159937 -1.75505,-0.519796 -0.69385,-1.519406 q 0,-0.959624 1.3469,-1.719327 1.18363,-0.679734 2.24483,-0.679734 0.36734,0.03998 2.20401,0.319875 l 0.24489,-0.159937 q 1.71423,-0.03998 3.42847,-0.03998 1.87749,0 3.30601,0.679733 l 2.04076,-0.639749 h 3.59173 l 0.69385,0.999609 q -0.85711,0.959624 -0.69385,1.919249 l -0.65305,0.55978 h -1.42852 l -1.59179,2.47903 v 23.350861 q 0,0.439828 0.32653,1.319483 0.32651,0.839671 0.32651,1.279499 0,0.439828 -0.12245,0.959625 0.73468,0.959624 2.08158,0.999608 1.55097,0.07996 1.99993,0.399844 0.97957,0.719718 1.38772,3.39867 z M 519.34318,38.353994 v -0.399843 h -0.24489 v 0.399843 z m 50.61075,-5.597809 q 0,1.919249 -2.08157,1.919249 -0.48978,0 -0.93875,-0.159937 l -0.36733,0.399843 -1.30608,0.239906 q -0.73467,-0.519797 -2.16321,-2.638967 -1.3469,-1.919249 -2.65297,-2.558998 -1.26527,-0.63975 -3.75499,-0.759704 -2.85706,-0.119952 -3.95906,-0.519796 -3.14276,1.239515 -3.71418,1.479422 -2.36727,1.119561 -3.10194,2.199139 -0.97957,1.439436 -2.4489,5.997652 -1.30609,4.078403 -2.73461,5.79773 v 0.599765 l 0.97955,0.119954 q -0.0408,6.197574 2.89788,9.396322 1.22445,1.359468 5.51003,3.118779 4.12232,1.719328 4.12232,1.719328 l 4.28559,-1.799296 q 3.10194,-1.319484 3.59172,-2.319093 0.57141,-0.319874 3.38766,-2.239124 2.53053,-1.719326 2.89787,-1.759311 l 1.55097,1.039594 v 6.997261 l -0.20407,0.479812 -2.24483,0.879656 -1.55098,-0.63975 -2.1632,0.959625 -0.20408,-0.159938 q -0.5714,0.279891 -4.12232,1.279499 -3.5509,1.039594 -3.99987,1.039594 h -3.91826 l -4.77536,-1.679343 -0.40815,0.159937 q -2.1632,-1.399453 -4.85699,-1.399453 h -0.40816 q -1.71422,0 -2.53053,-0.759702 -1.22445,-1.159546 -2.32646,-4.998044 l -0.89793,-0.63975 q -0.12245,-0.279889 -1.79586,-3.478637 -1.0612,-1.999218 -1.0612,-3.678561 0,-5.597809 0.32653,-7.836932 0.65304,-4.438263 3.02031,-7.117215 1.46935,-1.639358 6.16308,-4.358294 4.73455,-2.75892 6.89775,-3.198748 3.06113,-0.63975 5.10188,-0.63975 8.61198,2.319093 8.97932,2.519015 l 1.71423,-1.519406 q 1.30609,-1.159546 1.75505,-1.239515 1.02038,0.159938 2.24483,1.479421 1.26527,1.319484 1.26527,2.319092 z m -17.50967,28.029029 v -0.27989 h -0.61222 v 0.27989 z m 62.89605,-0.439828 -0.40815,0.879656 q -2.08157,1.239515 -6.08145,1.239515 -0.85712,0 -2.57135,-0.599765 -1.67342,-0.599765 -2.53053,-0.599765 -0.5306,0 -2.08158,0.519796 -1.75504,0.599765 -2.32645,0.679734 -0.93875,0.119953 -3.06113,0.07997 -1.95913,-0.03998 -3.02032,0.159938 l -0.57141,-0.839671 6.2447,-3.39867 q -0.2857,-1.199531 -1.14282,-4.278326 -0.97956,-3.318701 -2.32646,-3.238732 -3.02031,0.07997 -5.99981,0.199921 -3.87743,0.199922 -5.79574,0.839672 -0.93875,1.559389 -1.83668,3.718545 l -1.59179,3.838497 4.48966,-0.119953 1.71423,0.399844 -0.40815,1.239515 -2.08157,1.559389 -1.38771,0.199922 -3.18358,-0.559781 q -1.83668,-0.319875 -3.22439,-0.319875 -2.08156,0 -2.89787,0.679734 l -0.57141,-0.319874 -0.85711,0.319874 -1.10201,-0.719718 v -0.95963 q 3.14276,-1.439436 4.57128,-1.399452 l 0.44897,-0.399844 -0.36733,-0.399843 v -1.079577 q 0,-2.079187 6.12226,-16.433568 5.959,-14.034507 7.75487,-16.713458 l 0.73466,0.519796 q 1.10201,-0.239906 1.83668,-1.719327 l 0.53059,0.359859 L 593.30017,23 q 0.65303,0.35986 0.65303,0.879656 0,0.119953 -0.0408,0.199922 l 2.20402,0.679734 q 1.22445,0.359859 4.3264,8.876525 4.36721,11.875353 6.24471,15.753834 4.16313,8.596635 7.91812,9.236385 z m -20.93814,-13.274804 -4.73454,-9.83615 q -1.30609,1.999217 -2.85706,4.958059 -0.32653,0.63975 -0.53059,2.359077 -0.20408,1.83928 -0.48979,2.519014 z"
     id="text2"
     style="font-size:38.5518px;line-height:1.25;font-family:Bedbug;-inkscape-font-specification:Bedbug;stroke-width:1"
     aria-label="ROSICA" /></g><g
   inkscape:groupmode="layer"
   id="layer6"
   inkscape:label="Swift Logo"
   style="display:inline"><g
     id="Swift_Logo"
     transform="matrix(0.33593749,0,0,0.33593749,315.30562,-49.084089)"
     inkscape:label="#g4355"><circle
       transform="matrix(7.948951,0,0,7.948951,-113.02606,147.44601)"
       id="path5438-9"
       style="display:inline;fill:#a6c2db;fill-opacity:1;fill-rule:nonzero;stroke:none"
       cx="15.976951"
       cy="15.934779"
       r="15.976951" /><g
       transform="matrix(2.7631337,0,0,2.8215328,-1023.9204,-312.46471)"
       id="g30-9"
       style="display:inline;fill:#000000"><path
         style="fill:#000000"
         d="m 398.274,207.492 c 0,-8.577 9.966,-15.625 22.708,-16.425 -4.068,-2.255 -9.011,-3.578 -14.346,-3.578 -13.878,0 -25.129,8.955 -25.129,20.003 0,11.046 11.251,20.003 25.129,20.003 5.334,0 10.278,-1.323 14.346,-3.578 -12.742,-0.801 -22.708,-7.848 -22.708,-16.425 z"
         id="path32-8" /></g><path
       d="m 6.6875,1026 c -1.9264739,0 -3.7182058,0.6855 -5.1875,1.8438 4.6033941,0.4112 8.1875,4.0317 8.1875,8.4374 0,4.4063 -3.5841059,8.026 -8.1875,8.4376 1.4692942,1.1577 3.2610261,1.8124 5.1875,1.8124 2.3240783,0 4.42536,-0.968 6.03125,-2.5937 1.605888,1.6257 3.738421,2.5937 6.0625,2.5937 1.926473,0 3.717877,-0.6543 5.1875,-1.8124 -4.603394,-0.4115 -8.21875,-4.0308 -8.21875,-8.4376 0,-4.4057 3.615356,-8.0265 8.21875,-8.4374 -1.469623,-1.1579 -3.261027,-1.8438 -5.1875,-1.8438 -2.324079,0 -4.456612,0.968 -6.0625,2.5938 C 11.11286,1026.9679 9.0115783,1026 6.6875,1026 Z"
       id="path7570-6"
       style="display:inline;fill:#000000"
       inkscape:original="M 6.6875 1026 C 4.7610261 1026 2.9692942 1026.6855 1.5 1027.8438 C 6.1033941 1028.255 9.6875 1031.8755 9.6875 1036.2812 C 9.6875 1040.6875 6.1033941 1044.3072 1.5 1044.7188 C 2.9692942 1045.8765 4.7610261 1046.5312 6.6875 1046.5312 C 9.0115783 1046.5312 11.11286 1045.5632 12.71875 1043.9375 C 14.324638 1045.5632 16.457171 1046.5312 18.78125 1046.5312 C 20.707723 1046.5312 22.499127 1045.8769 23.96875 1044.7188 C 19.365356 1044.3073 15.75 1040.688 15.75 1036.2812 C 15.75 1031.8755 19.365356 1028.2547 23.96875 1027.8438 C 22.499127 1026.6859 20.707723 1026 18.78125 1026 C 16.457171 1026 14.324638 1026.968 12.71875 1028.5938 C 11.11286 1026.9679 9.0115783 1026 6.6875 1026 z "
       inkscape:radius="0"
       sodipodi:type="inkscape:offset"
       transform="matrix(8.3949343,0,0,8.3949509,-119.64838,-8426.4491)" /><g
       style="display:inline;fill:#ffffff;fill-opacity:1;stroke:none"
       id="g46-8"
       transform="matrix(2.7631337,0,0,2.7561761,-1023.9204,-297.43712)"><path
         inkscape:label="#path48"
         transform="matrix(2.0085847,0,0,2.0136552,327.66826,160.92878)"
         id="swift"
         d="m 26.78125,1.25 c -8.25014,7.9274389 -7.333075,15.429783 -6.3125,18.78125 -1.490567,0.281536 -2.676664,0.717505 -3.375,1.25 -0.01091,0.0083 -0.02058,0.02289 -0.03125,0.03125 -0.01963,0.0194 -0.05798,0.04051 -0.15625,0.125 -0.359675,0.309232 -1.191738,0.9375 -2.0625,0.9375 0.870762,0 1.702825,0.627988 2.0625,0.9375 0.0591,0.05366 0.11864,0.104276 0.1875,0.15625 0.763715,0.576437 2.110858,1.034246 3.78125,1.3125 -0.956212,2.406443 -3.246022,10.774708 6.3125,19.96875 0,0 -1.62044,-5.853329 -1.78125,-7 C 25.24544,36.603329 24.318923,30.792071 25,28.3125 c 0.277371,-1.010762 1.022321,-2.699204 1.3125,-3.34375 1.435001,-0.128937 2.69528,-0.39544 3.6875,-0.75 1.48643,0.323743 3.324803,0.53125 5.375,0.53125 1.84508,0 3.562287,-0.169828 4.96875,-0.4375 C 35.936667,24.218144 32.5,23.391559 32.5,22.375 c 0,-1.017056 3.436667,-1.842151 7.84375,-1.9375 C 38.937287,20.170324 37.22008,20 35.375,20 c -2.064162,0 -3.915165,0.203493 -5.40625,0.53125 -1.12247,-0.394046 -2.583466,-0.6795 -4.25,-0.78125 -0.322064,-0.7458 -0.654236,-1.550579 -0.8125,-2.09375 C 24.179868,15.163768 24.985598,9.362938 25.125,8.21875 25.265895,7.0750586 26.78125,1.25 26.78125,1.25 Z"
         style="fill:#ffffff;fill-opacity:1;stroke:none" /></g></g></g></svg>
